<mxfile host="65bd71144e">
    <diagram id="arAh2O85NykqQRYX55Kv" name="Page-1">
        <mxGraphModel dx="99" dy="522" grid="1" gridSize="10" guides="1" tooltips="1" connect="1" arrows="1" fold="1" page="1" pageScale="1" pageWidth="850" pageHeight="1100" math="0" shadow="0">
            <root>
                <mxCell id="0"/>
                <mxCell id="1" parent="0"/>
                <mxCell id="13" style="edgeStyle=entityRelationEdgeStyle;html=1;exitX=1;exitY=1;exitDx=0;exitDy=0;entryX=-0.017;entryY=0.613;entryDx=0;entryDy=0;entryPerimeter=0;startArrow=oval;startFill=1;sketch=1;curveFitting=1;jiggle=2;fillColor=#008a00;strokeColor=#005700;" parent="1" source="2" target="3" edge="1">
                    <mxGeometry relative="1" as="geometry"/>
                </mxCell>
                <mxCell id="2" value="" style="whiteSpace=wrap;html=1;aspect=fixed;sketch=1;curveFitting=1;jiggle=2;fillColor=#008a00;fontColor=#ffffff;strokeColor=#005700;" parent="1" vertex="1">
                    <mxGeometry x="90" y="100" width="80" height="80" as="geometry"/>
                </mxCell>
                <mxCell id="12" style="edgeStyle=none;shape=arrow;html=1;exitX=1;exitY=0.5;exitDx=0;exitDy=0;entryX=0.556;entryY=0.667;entryDx=0;entryDy=0;entryPerimeter=0;sketch=1;curveFitting=1;jiggle=2;fillColor=#008a00;strokeColor=#005700;" parent="1" source="3" target="10" edge="1">
                    <mxGeometry relative="1" as="geometry"/>
                </mxCell>
                <mxCell id="3" value="" style="shape=hexagon;perimeter=hexagonPerimeter2;whiteSpace=wrap;html=1;fixedSize=1;sketch=1;curveFitting=1;jiggle=2;fillColor=#008a00;fontColor=#ffffff;strokeColor=#005700;" parent="1" vertex="1">
                    <mxGeometry x="260" y="30" width="120" height="80" as="geometry"/>
                </mxCell>
                <mxCell id="4" value="Vertical Tree Layout" style="swimlane;startSize=20;horizontal=1;childLayout=treeLayout;horizontalTree=0;resizable=0;containerType=tree;fontSize=12;sketch=1;curveFitting=1;jiggle=2;fillColor=#008a00;fontColor=#ffffff;strokeColor=#005700;" parent="1" vertex="1">
                    <mxGeometry x="90" y="230" width="280" height="190" as="geometry"/>
                </mxCell>
                <mxCell id="5" value="Root" style="whiteSpace=wrap;html=1;sketch=1;curveFitting=1;jiggle=2;fillColor=#008a00;fontColor=#ffffff;strokeColor=#005700;" parent="4" vertex="1">
                    <mxGeometry x="90" y="40" width="100" height="40" as="geometry"/>
                </mxCell>
                <mxCell id="6" value="Child 1" style="whiteSpace=wrap;html=1;sketch=1;curveFitting=1;jiggle=2;fillColor=#008a00;fontColor=#ffffff;strokeColor=#005700;" parent="4" vertex="1">
                    <mxGeometry x="20" y="130" width="100" height="40" as="geometry"/>
                </mxCell>
                <mxCell id="7" value="" style="edgeStyle=elbowEdgeStyle;elbow=vertical;html=1;rounded=1;curved=0;sourcePerimeterSpacing=0;targetPerimeterSpacing=0;startSize=6;endSize=6;sketch=1;curveFitting=1;jiggle=2;fillColor=#008a00;strokeColor=#005700;" parent="4" source="5" target="6" edge="1">
                    <mxGeometry relative="1" as="geometry"/>
                </mxCell>
                <mxCell id="8" value="Child 2" style="whiteSpace=wrap;html=1;sketch=1;curveFitting=1;jiggle=2;fillColor=#008a00;fontColor=#ffffff;strokeColor=#005700;" parent="4" vertex="1">
                    <mxGeometry x="160" y="130" width="100" height="40" as="geometry"/>
                </mxCell>
                <mxCell id="9" value="" style="edgeStyle=elbowEdgeStyle;elbow=vertical;html=1;rounded=1;curved=0;sourcePerimeterSpacing=0;targetPerimeterSpacing=0;startSize=6;endSize=6;sketch=1;curveFitting=1;jiggle=2;fillColor=#008a00;strokeColor=#005700;" parent="4" source="5" target="8" edge="1">
                    <mxGeometry relative="1" as="geometry"/>
                </mxCell>
                <mxCell id="10" value="" style="html=1;verticalLabelPosition=bottom;align=center;labelBackgroundColor=#ffffff;verticalAlign=top;strokeWidth=2;strokeColor=#005700;shadow=0;dashed=0;shape=mxgraph.ios7.icons.alarm_clock;sketch=1;curveFitting=1;jiggle=2;fillColor=#008a00;fontColor=#ffffff;" parent="1" vertex="1">
                    <mxGeometry x="550" y="130" width="27" height="30" as="geometry"/>
                </mxCell>
                <mxCell id="11" value="" style="verticalLabelPosition=bottom;verticalAlign=top;html=1;shape=mxgraph.basic.8_point_star;sketch=1;curveFitting=1;jiggle=2;fillColor=#008a00;fontColor=#ffffff;strokeColor=#005700;" parent="1" vertex="1">
                    <mxGeometry x="510" y="290" width="100" height="100" as="geometry"/>
                </mxCell>
            </root>
        </mxGraphModel>
    </diagram>
</mxfile>